# xmcd
#
# Track frame offsets: 
#        180
#        17255
#        34034
#        50650
#        65461
#        83633
#        98811
#        116841
#        133411
#        149425
#        165537
#        181609
#        203176
#
# Disc length: 2976 seconds
#
# Revision: 2
# Processed by: cddbd v1.5.1PL0 Copyright (c) Steve Scherf et al.
# Submitted via: ExactAudioCopy v0.90b4
#
DISCID=ae0b9e0d
DTITLE=Clay Walker - A Few Questions
DYEAR=2003
DGENRE=Country
TTITLE0=A Few Questions
TTITLE1=Everybody Needs Love
TTITLE2=Sweet Sun Angel
TTITLE3=Jesus Was a Country Boy
TTITLE4=I Can't Sleep
TTITLE5=Coming Back Again
TTITLE6=Heaven Leave The Light On
TTITLE7=I'm In The Mood For You
TTITLE8=When She's Good She's Good
TTITLE9=This Is What Matters
TTITLE10=Countrified
TTITLE11=I Don't Want To Know
TTITLE12=I Can't Forget Her
EXTD=
EXTT0=
EXTT1=
EXTT2=
EXTT3=
EXTT4=
EXTT5=
EXTT6=
EXTT7=
EXTT8=
EXTT9=
EXTT10=
EXTT11=
EXTT12=
PLAYORDER=
